<?xml version="1.0" encoding="utf-8"?>
<!-- Generator: Adobe Illustrator 23.0.3, SVG Export Plug-In . SVG Version: 6.00 Build 0)  -->
<svg version="1.1" xmlns="http://www.w3.org/2000/svg" xmlns:xlink="http://www.w3.org/1999/xlink" x="0px" y="0px"
	 viewBox="0 0 64 21.31" style="enable-background:new 0 0 64 21.31;" xml:space="preserve">
<style type="text/css">
	.st0{fill:#0088FF;}
</style>
<g id="Слой_1">
	<g>
		<path class="st0" d="M0,0h7.67v19.09h4.9v2.22H0v-2.22h5.1V2.23H0V0z"/>
		<path class="st0" d="M17.05,6.3h7.67v12.79h4.9v2.22H17.05v-2.22h5.1V8.53h-5.1V6.3z M21.82,2.36c0-0.43,0.13-0.78,0.38-1.07
			s0.64-0.44,1.16-0.44c0.51,0,0.89,0.15,1.15,0.44c0.26,0.29,0.39,0.65,0.39,1.07c0,0.42-0.13,0.76-0.39,1.04
			c-0.26,0.28-0.64,0.42-1.15,0.42c-0.52,0-0.9-0.14-1.16-0.42S21.82,2.77,21.82,2.36z"/>
		<path class="st0" d="M35.99,6.3l0.18,2.22c0.55-0.78,1.22-1.38,2.01-1.82s1.68-0.66,2.66-0.67c0.79,0,1.5,0.11,2.14,0.33
			c0.64,0.22,1.19,0.57,1.64,1.04s0.8,1.07,1.05,1.8c0.25,0.73,0.37,1.59,0.37,2.59v9.53h-2.57v-9.47c0-0.67-0.07-1.23-0.22-1.69
			C43.12,9.68,42.9,9.3,42.6,9.02s-0.65-0.49-1.07-0.62c-0.42-0.13-0.9-0.19-1.45-0.19c-0.86,0-1.62,0.21-2.27,0.64
			c-0.65,0.43-1.17,1-1.56,1.7v10.76h-2.57V6.3H35.99z"/>
		<path class="st0" d="M55.23,14.3l-1.89,1.82v5.19h-2.58V0h2.58v13.04l1.68-1.8l4.92-4.94h3.12L57,12.55l7,8.75h-3.26L55.23,14.3z"
			/>
	</g>
</g>
<g id="Слой_2">
</g>
</svg>
