<?xml version="1.0" encoding="utf-8"?>
<!-- Generator: Adobe Illustrator 23.0.3, SVG Export Plug-In . SVG Version: 6.00 Build 0)  -->
<svg version="1.1" xmlns="http://www.w3.org/2000/svg" xmlns:xlink="http://www.w3.org/1999/xlink" x="0px" y="0px"
	 viewBox="0 0 64 21.68" style="enable-background:new 0 0 64 21.68;" xml:space="preserve">
<style type="text/css">
	.st0{fill:#0080FF;}
</style>
<g>
	<path class="st0" d="M0,0h6.42v20.92h5.36v0.76H0v-0.76h5.66V0.76H0V0z"/>
	<path class="st0" d="M17.35,6.41h6.37v14.51h5.42v0.76H17.35v-0.76h5.6V7.17h-5.6V6.41z M22.3,2.06c0-0.13,0.01-0.26,0.04-0.39
		c0.03-0.13,0.08-0.24,0.15-0.34c0.08-0.1,0.18-0.18,0.3-0.23c0.13-0.06,0.29-0.09,0.49-0.09c0.19,0,0.35,0.03,0.47,0.09
		c0.13,0.06,0.23,0.13,0.31,0.23c0.08,0.1,0.14,0.21,0.17,0.34c0.03,0.13,0.05,0.26,0.05,0.39c0,0.25-0.07,0.49-0.22,0.69
		c-0.15,0.21-0.41,0.31-0.78,0.31c-0.39,0-0.65-0.1-0.78-0.31C22.37,2.55,22.3,2.32,22.3,2.06z"/>
	<path class="st0" d="M36.02,8.5c0.37-0.48,0.8-0.9,1.28-1.25c0.48-0.35,1.02-0.62,1.6-0.83c0.58-0.2,1.21-0.3,1.88-0.3
		c0.87,0,1.63,0.14,2.26,0.42c0.64,0.28,1.16,0.67,1.57,1.18c0.41,0.5,0.72,1.1,0.92,1.8c0.2,0.7,0.3,1.45,0.31,2.27l0.02,9.88
		h-0.78V11.8c-0.01-0.71-0.1-1.38-0.26-1.98c-0.17-0.61-0.42-1.13-0.77-1.57c-0.35-0.44-0.79-0.78-1.34-1.02
		c-0.55-0.24-1.2-0.36-1.98-0.35c-0.69,0.01-1.34,0.15-1.96,0.41c-0.62,0.26-1.18,0.62-1.68,1.06c-0.5,0.44-0.92,0.96-1.27,1.55
		c-0.35,0.59-0.59,1.22-0.73,1.88v9.91h-0.78V6.41h0.78v3.67C35.34,9.51,35.64,8.99,36.02,8.5z"/>
	<path class="st0" d="M55.49,13.41l-0.06,0.04l-2.36,1.92v6.31H52.3V0h0.78v14.55l1.93-1.72l7.4-6.42h1.13l-7.45,6.49L64,21.68
		h-1.02L55.49,13.41z"/>
</g>
</svg>
