<?xml version="1.0" encoding="utf-8"?>
<!-- Generator: Adobe Illustrator 21.1.0, SVG Export Plug-In . SVG Version: 6.00 Build 0)  -->
<svg version="1.1" id="Слой_1" xmlns="http://www.w3.org/2000/svg" xmlns:xlink="http://www.w3.org/1999/xlink" x="0px" y="0px"
	 viewBox="0 0 64 45.2" style="enable-background:new 0 0 64 45.2;" xml:space="preserve">
<style type="text/css">
	.st0{fill:#FF8000;}
</style>
<g>
	<path class="st0" d="M12.7,23.6c0.2,0.3,0.2,0.6,0.2,1.1c0,0.9-0.2,1.5-0.6,2c-0.9,1.1-1.9,2.1-3,2.8c-1.1,0.7-2.3,1.1-3.7,1.1
		c-1.9,0-3.3-0.9-4.2-2.6C0.5,26.3,0,24,0,21.3c0-2.6,0.3-5.6,1-9C1.7,8.9,2.7,6,4,3.6C5.4,1.2,6.9,0,8.8,0c1,0,1.8,0.5,2.4,1.4
		c0.6,1,0.9,2.3,0.9,4.1c0,2.6-0.7,5.5-2.1,8.9s-3.4,6.7-5.8,10.1c0.2,0.9,0.4,1.5,0.7,1.9C5.3,26.8,5.7,27,6.3,27
		c0.9,0,1.7-0.3,2.3-0.8c0.7-0.5,1.5-1.4,2.6-2.6c0.3-0.3,0.6-0.5,0.9-0.5C12.3,23.2,12.5,23.3,12.7,23.6z M6.4,5.9
		c-0.6,1.8-1.2,4-1.7,6.7c-0.5,2.7-0.7,5.2-0.8,7.6c1.5-2.5,2.8-5.1,3.7-7.6S9,7.8,9,5.7C9,4,8.7,3.2,8.1,3.2C7.6,3.2,7,4.1,6.4,5.9
		z"/>
	<path class="st0" d="M11.2,29.1c-0.6-1-1-2.3-1-3.9c0-1,0.1-2.2,0.4-3.7c0.2-1.5,0.6-2.9,1-4.3c0.2-0.7,0.5-1.2,0.8-1.4
		c0.3-0.3,0.8-0.4,1.6-0.4c1.1,0,1.7,0.4,1.7,1.1c0,0.5-0.2,1.8-0.6,3.8c-0.5,2.4-0.8,4-0.8,4.8c0,0.6,0.1,1.1,0.3,1.5
		c0.2,0.3,0.5,0.5,0.9,0.5c0.4,0,0.9-0.3,1.5-0.8c0.6-0.5,1.4-1.4,2.3-2.6c0.3-0.3,0.6-0.5,0.9-0.5c0.3,0,0.5,0.1,0.7,0.4
		c0.2,0.3,0.2,0.6,0.2,1.1c0,0.9-0.2,1.5-0.6,2c-2.1,2.6-4.1,3.9-6,3.9C12.9,30.6,11.9,30.1,11.2,29.1z M12.5,12.6
		c-0.5-0.4-0.7-1-0.7-1.8c0-0.8,0.3-1.4,0.9-1.9c0.6-0.5,1.3-0.8,2.2-0.8c0.8,0,1.4,0.2,1.9,0.6c0.5,0.4,0.7,0.9,0.7,1.7
		c0,0.9-0.3,1.5-0.8,2.1c-0.6,0.5-1.3,0.8-2.2,0.8C13.7,13.2,13,13,12.5,12.6z"/>
	<path class="st0" d="M18.9,29.3c-0.3-0.9-0.5-2.2-0.5-4.1c0-2.8,0.4-5.5,1.2-8c0.2-0.6,0.5-1.1,1-1.4c0.4-0.3,1.1-0.4,1.9-0.4
		c0.4,0,0.7,0.1,0.9,0.2c0.2,0.1,0.3,0.3,0.3,0.6c0,0.3-0.2,1.1-0.5,2.3c-0.2,0.9-0.4,1.6-0.5,2.3c-0.1,0.6-0.2,1.4-0.3,2.4
		c0.7-1.9,1.5-3.4,2.4-4.5c0.9-1.2,1.8-2,2.6-2.5s1.6-0.7,2.3-0.7c1.4,0,2.1,0.7,2.1,2.1c0,0.8-0.2,2.4-0.7,4.6
		c-0.4,1.9-0.6,3.1-0.6,3.7c0,0.9,0.3,1.3,0.9,1.3c0.4,0,0.9-0.3,1.5-0.8c0.6-0.5,1.4-1.4,2.4-2.6c0.3-0.3,0.6-0.5,0.9-0.5
		c0.3,0,0.5,0.1,0.7,0.4c0.2,0.3,0.2,0.6,0.2,1.1c0,0.9-0.2,1.5-0.6,2c-0.9,1.1-1.9,2.1-3,2.8c-1.1,0.7-2.3,1.1-3.6,1.1
		c-1.1,0-1.9-0.3-2.5-1c-0.6-0.6-0.8-1.6-0.8-2.8c0-0.6,0.2-1.7,0.5-3.2c0.3-1.4,0.4-2.3,0.4-2.8c0-0.3-0.1-0.5-0.4-0.5
		c-0.3,0-0.7,0.4-1.2,1.1c-0.5,0.7-1,1.7-1.6,2.9c-0.5,1.2-1,2.4-1.3,3.8c-0.2,1-0.5,1.7-0.8,2.1c-0.3,0.4-0.8,0.5-1.5,0.5
		C19.8,30.6,19.2,30.2,18.9,29.3z"/>
	<path class="st0" d="M53.7,23.6c0.2,0.3,0.2,0.6,0.2,1.1c0,0.9-0.2,1.5-0.6,2c-1,1.2-2,2.1-2.9,2.8c-1,0.7-2.2,1.1-3.5,1.1
		c-1.7,0-3-0.5-4-1.4c-1-0.9-1.5-2.2-1.5-3.8c0-0.8,0.4-1.4,1.3-1.8c0.9-0.4,1.6-0.8,2-1.3c0.4-0.5,0.6-1,0.6-1.7
		c0-0.4-0.1-0.7-0.2-0.9c-0.2-0.2-0.4-0.3-0.6-0.3c-0.6,0-1.2,0.4-1.9,1.3c-0.7,0.8-1.4,1.9-2,3.3c-0.6,1.3-1.1,2.7-1.4,4.1
		c-0.2,1-0.5,1.7-0.8,2.1c-0.3,0.4-0.8,0.5-1.5,0.5s-1.2-0.2-1.5-0.7c-0.3-0.5-0.5-1.2-0.6-2.2c-0.1-1-0.2-2.5-0.2-4.5
		c0-3.3,0.3-6.8,1-10.4c0.7-3.6,1.7-6.6,3-9.1C39.9,1.2,41.5,0,43.4,0c1,0,1.8,0.4,2.4,1.3c0.6,0.9,0.9,2,0.9,3.3
		c0,2.2-0.6,4.4-1.9,6.8c-1.3,2.3-3.3,5.1-6.2,8.2c-0.1,1.1-0.1,2.3-0.1,3.5c1-2.7,2.2-4.7,3.6-5.9c1.3-1.2,2.6-1.8,3.8-1.8
		c1.1,0,1.9,0.4,2.6,1.1s1,1.6,1,2.7c0,1.2-0.3,2.3-0.9,3.3c-0.6,1-1.6,1.9-3.1,2.7c0.1,0.6,0.4,1.1,0.8,1.4c0.4,0.4,1,0.5,1.6,0.5
		c0.7,0,1.3-0.3,1.9-0.8c0.6-0.5,1.4-1.4,2.5-2.6c0.3-0.3,0.6-0.5,0.9-0.5C53.3,23.2,53.6,23.3,53.7,23.6z M41.4,4.9
		C40.9,6,40.5,7.5,40,9.4c-0.4,1.9-0.8,3.9-1.1,6.2c1.3-1.6,2.4-3.3,3.3-5.1c0.9-1.9,1.3-3.5,1.3-5c0-0.7-0.1-1.2-0.2-1.6
		c-0.2-0.4-0.4-0.5-0.6-0.5C42.3,3.2,41.9,3.8,41.4,4.9z"/>
	<path class="st0" d="M63.7,15.5c0.2,0.1,0.3,0.3,0.3,0.6c0,0.5-0.3,2.4-0.8,5.5c-0.5,3-0.8,4.8-0.9,5.4c-0.8,5.5-1.9,9.9-3.3,13.2
		c-1.4,3.2-3.3,4.9-5.6,4.9c-1.1,0-2-0.3-2.7-1c-0.7-0.7-1-1.6-1-2.7c0-1,0.2-2,0.7-3.1s1.3-2.3,2.6-3.6c1.3-1.4,3-2.9,5.4-4.7
		l0.1-0.7c0.2-0.8,0.3-1.9,0.5-3.4c-0.4,1.6-1,2.7-1.8,3.5c-0.8,0.8-1.6,1.2-2.5,1.2c-1,0-1.8-0.4-2.4-1.3c-0.6-0.9-0.9-2-0.9-3.4
		c0-1.6,0.1-3.1,0.3-4.5c0.2-1.3,0.6-2.8,1.1-4.3c0.2-0.6,0.5-1.1,0.9-1.4c0.4-0.3,1-0.4,1.8-0.4c0.5,0,0.8,0.1,1,0.2
		c0.2,0.2,0.3,0.4,0.3,0.7c0,0.2-0.1,0.8-0.4,1.7c-0.2,0.8-0.4,1.5-0.5,2.2c-0.2,0.9-0.3,1.7-0.5,2.5c-0.1,0.8-0.2,1.5-0.2,2
		c0,0.8,0.2,1.2,0.7,1.2c0.3,0,0.7-0.3,1.2-1c0.5-0.6,1-1.6,1.6-2.9c0.6-1.3,1.1-2.9,1.6-4.9c0.2-0.6,0.4-1.1,0.8-1.4
		c0.4-0.3,0.9-0.4,1.6-0.4C63.2,15.3,63.5,15.4,63.7,15.5z M55.6,40.1c0.7-1.3,1.3-3.3,2-6.2c-1.7,1.4-2.9,2.7-3.6,3.8
		c-0.7,1.2-1.1,2.2-1.1,3c0,0.4,0.1,0.7,0.2,0.9c0.1,0.2,0.4,0.4,0.7,0.4C54.3,42,54.9,41.4,55.6,40.1z"/>
</g>
</svg>
